<svg xmlns="http://www.w3.org/2000/svg" viewBox="0 0 32 32">
  <rect width="32" height="32" rx="6" fill="#019587"/>
  <rect x="7" y="5" width="18" height="22" rx="1.5" fill="#fff"/>
  <rect x="10" y="8" width="5" height="4" rx="0.5" fill="#019587"/>
  <rect x="17" y="8" width="5" height="4" rx="0.5" fill="#019587"/>
  <rect x="10" y="14" width="5" height="4" rx="0.5" fill="#019587"/>
  <rect x="17" y="14" width="5" height="4" rx="0.5" fill="#019587"/>
  <rect x="10" y="20" width="5" height="4" rx="0.5" fill="#019587"/>
  <rect x="17" y="20" width="5" height="4" rx="0.5" fill="#019587"/>
  <rect x="4" y="7" width="2" height="2" rx="0.5" fill="#019587"/>
  <rect x="4" y="11" width="2" height="2" rx="0.5" fill="#019587"/>
  <rect x="4" y="15" width="2" height="2" rx="0.5" fill="#019587"/>
  <rect x="4" y="19" width="2" height="2" rx="0.5" fill="#019587"/>
  <rect x="4" y="23" width="2" height="2" rx="0.5" fill="#019587"/>
  <rect x="26" y="7" width="2" height="2" rx="0.5" fill="#019587"/>
  <rect x="26" y="11" width="2" height="2" rx="0.5" fill="#019587"/>
  <rect x="26" y="15" width="2" height="2" rx="0.5" fill="#019587"/>
  <rect x="26" y="19" width="2" height="2" rx="0.5" fill="#019587"/>
  <rect x="26" y="23" width="2" height="2" rx="0.5" fill="#019587"/>
</svg>
